<?xml version="1.0" encoding="UTF-8" standalone="no"?>
<!DOCTYPE svg PUBLIC "-//W3C//DTD SVG 1.1//EN"
 "http://www.w3.org/Graphics/SVG/1.1/DTD/svg11.dtd">
<!-- Generated by graphviz version 2.40.1 (20161225.0304)
 -->
<!-- Title: G Pages: 1 -->
<svg width="355pt" height="479pt"
 viewBox="0.00 0.00 355.00 479.00" xmlns="http://www.w3.org/2000/svg" xmlns:xlink="http://www.w3.org/1999/xlink">
<g id="graph0" class="graph" transform="scale(1 1) rotate(0) translate(4 475)">
<title>G</title>
<polygon fill="#ffffff" stroke="transparent" points="-4,4 -4,-475 351,-475 351,4 -4,4"/>
<!-- S -->
<g id="node1" class="node">
<title>S</title>
<ellipse fill="none" stroke="#000000" cx="100" cy="-453" rx="27" ry="18"/>
<text text-anchor="middle" x="100" y="-449.3" font-family="Times,serif" font-size="14.00" fill="#000000">S</text>
</g>
<!-- T -->
<g id="node2" class="node">
<title>T</title>
<ellipse fill="none" stroke="#000000" cx="100" cy="-366" rx="27" ry="18"/>
<text text-anchor="middle" x="100" y="-362.3" font-family="Times,serif" font-size="14.00" fill="#000000">T</text>
</g>
<!-- S&#45;&gt;T -->
<g id="edge1" class="edge">
<title>S&#45;&gt;T</title>
<path fill="none" stroke="#000000" d="M87.4254,-436.6841C83.6239,-430.805 79.9442,-423.9099 78,-417 75.5331,-408.2325 77.8814,-398.992 81.8276,-390.8211"/>
<polygon fill="#000000" stroke="#000000" points="84.8696,-392.552 86.7903,-382.1327 78.7913,-389.0801 84.8696,-392.552"/>
<text text-anchor="middle" x="94" y="-405.8" font-family="Times,serif" font-size="14.00" fill="#000000"> &#160;&#160;&#160;&#160;&#160;&#45;</text>
</g>
<!-- S&#45;&gt;T -->
<g id="edge2" class="edge">
<title>S&#45;&gt;T</title>
<path fill="none" stroke="#000000" d="M105.956,-435.2549C107.6095,-429.5001 109.1765,-423.0416 110,-417 111.0389,-409.3786 110.2769,-401.1775 108.7983,-393.6281"/>
<polygon fill="#000000" stroke="#000000" points="112.1876,-392.7529 106.4395,-383.8529 105.3829,-394.3949 112.1876,-392.7529"/>
</g>
<!-- T&#45;&gt;T -->
<g id="edge3" class="edge">
<title>T&#45;&gt;T</title>
<path fill="none" stroke="#000000" d="M124.5325,-373.752C135.5078,-374.4902 145,-371.9063 145,-366 145,-362.0317 140.7151,-359.5632 134.5743,-358.5944"/>
<polygon fill="#000000" stroke="#000000" points="134.6472,-355.0949 124.5325,-358.248 134.4059,-362.0908 134.6472,-355.0949"/>
<text text-anchor="middle" x="166.5" y="-362.3" font-family="Times,serif" font-size="14.00" fill="#000000">[0 &#45; 9]</text>
</g>
<!-- ◉ -->
<g id="node3" class="node">
<title>◉</title>
<ellipse fill="none" stroke="#000000" cx="129" cy="-18" rx="27" ry="18"/>
<text text-anchor="middle" x="129" y="-14.3" font-family="Times,serif" font-size="14.00" fill="#000000">◉</text>
</g>
<!-- T&#45;&gt;◉ -->
<g id="edge4" class="edge">
<title>T&#45;&gt;◉</title>
<path fill="none" stroke="#ff0000" d="M76.0475,-357.371C46.4634,-344.991 0,-319.1556 0,-279 0,-279 0,-279 0,-105 0,-59.8691 54.9425,-36.5905 93.1145,-25.8635"/>
<polygon fill="#ff0000" stroke="#ff0000" points="94.1194,-29.2182 102.8949,-23.2818 92.3328,-22.45 94.1194,-29.2182"/>
<text text-anchor="middle" x="21.5" y="-188.3" font-family="Times,serif" font-size="14.00" fill="#000000">[0 &#45; 9]</text>
</g>
<!-- F -->
<g id="node4" class="node">
<title>F</title>
<ellipse fill="none" stroke="#000000" cx="187" cy="-105" rx="27" ry="18"/>
<text text-anchor="middle" x="187" y="-101.3" font-family="Times,serif" font-size="14.00" fill="#000000">F</text>
</g>
<!-- T&#45;&gt;F -->
<g id="edge5" class="edge">
<title>T&#45;&gt;F</title>
<path fill="none" stroke="#000000" d="M92.0703,-348.6534C81.1257,-322.5786 63.5398,-271.6793 71,-228 78.6226,-183.3696 87.8143,-168.2134 124,-141 125.6306,-139.7737 141.7494,-130.5666 157.2728,-121.7715"/>
<polygon fill="#000000" stroke="#000000" points="159.2496,-124.6745 166.2299,-116.7041 155.8027,-118.5819 159.2496,-124.6745"/>
<text text-anchor="middle" x="92.5" y="-231.8" font-family="Times,serif" font-size="14.00" fill="#000000">[0 &#45; 9]</text>
</g>
<!-- T2 -->
<g id="node5" class="node">
<title>T2</title>
<ellipse fill="none" stroke="#000000" cx="126" cy="-192" rx="27" ry="18"/>
<text text-anchor="middle" x="126" y="-188.3" font-family="Times,serif" font-size="14.00" fill="#000000">T2</text>
</g>
<!-- T&#45;&gt;T2 -->
<g id="edge6" class="edge">
<title>T&#45;&gt;T2</title>
<path fill="none" stroke="#000000" d="M102.6845,-348.0343C107.1997,-317.8176 116.3482,-256.5928 121.7457,-220.4709"/>
<polygon fill="#000000" stroke="#000000" points="125.2748,-220.5361 123.2911,-210.1286 118.3516,-219.5016 125.2748,-220.5361"/>
<text text-anchor="middle" x="120" y="-275.3" font-family="Times,serif" font-size="14.00" fill="#000000"> .</text>
</g>
<!-- E -->
<g id="node6" class="node">
<title>E</title>
<ellipse fill="none" stroke="#000000" cx="203" cy="-279" rx="27" ry="18"/>
<text text-anchor="middle" x="203" y="-275.3" font-family="Times,serif" font-size="14.00" fill="#000000">E</text>
</g>
<!-- T&#45;&gt;E -->
<g id="edge7" class="edge">
<title>T&#45;&gt;E</title>
<path fill="none" stroke="#000000" d="M117.1825,-351.6646C125.0613,-345.0784 134.5163,-337.1567 143,-330 154.6579,-320.1656 167.5498,-309.217 178.3862,-299.9931"/>
<polygon fill="#000000" stroke="#000000" points="180.8743,-302.4715 186.2177,-293.3228 176.3354,-297.1425 180.8743,-302.4715"/>
<text text-anchor="middle" x="180.5" y="-318.8" font-family="Times,serif" font-size="14.00" fill="#000000">[E | e]</text>
</g>
<!-- F&#45;&gt;◉ -->
<g id="edge16" class="edge">
<title>F&#45;&gt;◉</title>
<path fill="none" stroke="#ff0000" d="M175.817,-88.2255C167.3118,-75.4677 155.4682,-57.7024 145.8216,-43.2325"/>
<polygon fill="#ff0000" stroke="#ff0000" points="148.6079,-41.102 140.1487,-34.723 142.7835,-44.985 148.6079,-41.102"/>
<text text-anchor="middle" x="201.5" y="-57.8" font-family="Times,serif" font-size="14.00" fill="#000000">[F | L | f | l]</text>
</g>
<!-- T2&#45;&gt;◉ -->
<g id="edge9" class="edge">
<title>T2&#45;&gt;◉</title>
<path fill="none" stroke="#ff0000" d="M119.4602,-174.203C112.6078,-153.3489 103.4267,-117.7333 108,-87 110.0878,-72.9698 114.4399,-57.8455 118.6435,-45.3427"/>
<polygon fill="#ff0000" stroke="#ff0000" points="122.0754,-46.1333 122.0867,-35.5385 115.4708,-43.8138 122.0754,-46.1333"/>
<text text-anchor="middle" x="129.5" y="-101.3" font-family="Times,serif" font-size="14.00" fill="#000000">[0 &#45; 9]</text>
</g>
<!-- T2&#45;&gt;F -->
<g id="edge10" class="edge">
<title>T2&#45;&gt;F</title>
<path fill="none" stroke="#000000" d="M125.8425,-173.7669C126.54,-163.4392 128.79,-150.6892 135,-141 140.2213,-132.8534 148.0099,-126.0495 155.9794,-120.6293"/>
<polygon fill="#000000" stroke="#000000" points="157.9312,-123.5374 164.5854,-115.2928 154.2422,-117.5883 157.9312,-123.5374"/>
<text text-anchor="middle" x="156.5" y="-144.8" font-family="Times,serif" font-size="14.00" fill="#000000">[0 &#45; 9]</text>
</g>
<!-- T2&#45;&gt;T2 -->
<g id="edge8" class="edge">
<title>T2&#45;&gt;T2</title>
<path fill="none" stroke="#000000" d="M150.5325,-199.752C161.5078,-200.4902 171,-197.9063 171,-192 171,-188.0317 166.7151,-185.5632 160.5743,-184.5944"/>
<polygon fill="#000000" stroke="#000000" points="160.6472,-181.0949 150.5325,-184.248 160.4059,-188.0908 160.6472,-181.0949"/>
<text text-anchor="middle" x="192.5" y="-188.3" font-family="Times,serif" font-size="14.00" fill="#000000">[0 &#45; 9]</text>
</g>
<!-- T3 -->
<g id="node7" class="node">
<title>T3</title>
<ellipse fill="none" stroke="#000000" cx="259" cy="-192" rx="27" ry="18"/>
<text text-anchor="middle" x="259" y="-188.3" font-family="Times,serif" font-size="14.00" fill="#000000">T3</text>
</g>
<!-- E&#45;&gt;T3 -->
<g id="edge11" class="edge">
<title>E&#45;&gt;T3</title>
<path fill="none" stroke="#000000" d="M199.3837,-260.9387C198.2616,-250.6683 198.5116,-237.9183 204,-228 207.052,-222.4846 217.7114,-215.0258 228.8445,-208.3277"/>
<polygon fill="#000000" stroke="#000000" points="230.8431,-211.2147 237.7383,-203.1707 227.3317,-205.1591 230.8431,-211.2147"/>
<text text-anchor="middle" x="224.5" y="-231.8" font-family="Times,serif" font-size="14.00" fill="#000000">[+ | &#45;]</text>
</g>
<!-- E&#45;&gt;T3 -->
<g id="edge12" class="edge">
<title>E&#45;&gt;T3</title>
<path fill="none" stroke="#000000" d="M222.4501,-266.2655C230.4816,-260.1104 239.2406,-252.0843 245,-243 249.3755,-236.0984 252.4008,-227.8315 254.4859,-219.9827"/>
<polygon fill="#000000" stroke="#000000" points="257.9389,-220.5801 256.7197,-210.0556 251.1097,-219.0433 257.9389,-220.5801"/>
</g>
<!-- T3&#45;&gt;◉ -->
<g id="edge14" class="edge">
<title>T3&#45;&gt;◉</title>
<path fill="none" stroke="#ff0000" d="M262.7103,-173.992C267.534,-145.175 272.3051,-88.4463 244,-54 233.8713,-41.6738 194.9929,-31.2568 165.2163,-24.8492"/>
<polygon fill="#ff0000" stroke="#ff0000" points="165.6285,-21.3602 155.1256,-22.7535 164.2049,-28.214 165.6285,-21.3602"/>
<text text-anchor="middle" x="287.5" y="-101.3" font-family="Times,serif" font-size="14.00" fill="#000000">[0 &#45; 9]</text>
</g>
<!-- T3&#45;&gt;F -->
<g id="edge15" class="edge">
<title>T3&#45;&gt;F</title>
<path fill="none" stroke="#000000" d="M237.43,-180.7851C223.0875,-172.9348 206.0005,-162.6937 201,-156 196.1094,-149.4533 192.9271,-141.2945 190.8565,-133.4358"/>
<polygon fill="#000000" stroke="#000000" points="194.2333,-132.4886 188.7247,-123.4384 187.3873,-133.9485 194.2333,-132.4886"/>
<text text-anchor="middle" x="222.5" y="-144.8" font-family="Times,serif" font-size="14.00" fill="#000000">[0 &#45; 9]</text>
</g>
<!-- T3&#45;&gt;T3 -->
<g id="edge13" class="edge">
<title>T3&#45;&gt;T3</title>
<path fill="none" stroke="#000000" d="M283.5325,-199.752C294.5078,-200.4902 304,-197.9063 304,-192 304,-188.0317 299.7151,-185.5632 293.5743,-184.5944"/>
<polygon fill="#000000" stroke="#000000" points="293.6472,-181.0949 283.5325,-184.248 293.4059,-188.0908 293.6472,-181.0949"/>
<text text-anchor="middle" x="325.5" y="-188.3" font-family="Times,serif" font-size="14.00" fill="#000000">[0 &#45; 9]</text>
</g>
</g>

<g transform="translate(0.000000,17.000000) scale(0.100000,-0.100000)"
fill="#000000" stroke="none">
<path d="M21 157 c-29 -35 -16 -97 20 -97 15 0 19 -5 15 -16 -3 -9 -6 -20 -6
-25 0 -5 -4 -9 -10 -9 -14 0 -12 27 3 33 6 3 2 6 -10 6 -30 1 -31 -35 -3 -44
28 -9 47 9 55 51 3 20 9 42 12 50 3 8 -1 14 -11 14 -9 0 -16 -8 -16 -19 0 -26
-15 -34 -30 -16 -13 16 -6 48 16 70 14 13 13 15 -4 15 -11 0 -25 -6 -31 -13z"/>
<path d="M80 150 c0 -13 5 -20 13 -17 6 2 12 10 12 17 0 7 -6 15 -12 18 -8 2
-13 -5 -13 -18z"/>
<path d="M347 164 c-13 -13 -7 -24 14 -24 11 0 19 5 17 12 -5 14 -22 21 -31
12z"/>
<path d="M103 85 c-9 -40 -8 -45 8 -45 13 0 19 9 21 33 2 24 7 31 21 29 10 -2
17 3 17 13 0 10 -9 15 -28 15 -26 0 -30 -5 -39 -45z"/>
<path d="M175 101 c-24 -48 -13 -59 64 -60 63 -1 69 1 79 25 15 31 15 64 1 64
-6 0 -8 -8 -5 -18 4 -10 -1 -27 -10 -38 -14 -18 -15 -17 -9 19 5 29 3 37 -9
37 -9 0 -18 -13 -22 -35 -3 -19 -10 -35 -14 -35 -4 0 -4 16 0 35 8 35 8 35
-26 35 -27 0 -36 -6 -49 -29z m47 -6 c-5 -28 -22 -44 -22 -21 0 21 11 46 20
46 4 0 5 -11 2 -25z"/>
<path d="M340 116 c0 -7 -3 -28 -6 -45 -6 -26 -3 -31 13 -31 10 0 25 6 32 12
11 10 13 10 7 1 -5 -9 3 -13 28 -13 25 0 36 4 36 15 0 8 -4 15 -10 15 -5 0
-10 -4 -10 -10 0 -5 -5 -10 -11 -10 -6 0 -2 12 9 28 36 51 36 52 -2 52 -25 0
-36 -4 -36 -15 0 -8 5 -15 10 -15 6 0 10 5 10 12 0 6 3 9 6 6 9 -10 -19 -46
-39 -52 -17 -4 -18 -1 -13 30 6 27 4 34 -9 34 -8 0 -15 -6 -15 -14z"/>
<path d="M472 118 c-7 -7 -12 -27 -12 -46 0 -30 2 -33 27 -30 17 2 32 12 39
27 7 13 18 28 26 33 10 8 9 8 -4 4 -12 -3 -18 0 -18 9 0 18 -41 20 -58 3z m29
-51 c-13 -13 -15 11 -4 40 7 16 8 15 11 -6 2 -13 -1 -28 -7 -34z"/>
</g>
</svg>
